PathFileType	4	(X/Y/Z)	/Users/itak/Documents/Research/Walk-IL/dataset/trc/00357_00011.trc
DataRate	CameraRate	NumFrames	NumMarkers	Units	OrigDataRate	OrigDataStartFrame	OrigNumFrames
100.000000	100.000000	4	59	mm	100.000000	376	430
Frame#	Time	RPSI			LPSI			L3			STRN			T10			C7			CLAV			RBAK			LBAK			LSHO			LUPA			LAEL			LAOL			LWTS			LWPS			LFRA			LHPS			LHTS			RSHO			RUPA			RAEL			RAOL			RWTS			RWPS			RFRA			RIFD			RHTS			RHPS			RBHD			LFHD			RFHD			LBHD			RHIP			RASI			LASI			LKNE			LTHI			LANK			LTIP			LTOE			LMT1			LMT5			LHEE			RKNE			RTHI			RANK			RTIP			RTOE			RMT5			RHEE			LIFD			LHIP			RMT1			*53			*54			*55			*56			*57			*58			
		X1	Y1	Z1	X2	Y2	Z2	X3	Y3	Z3	X4	Y4	Z4	X5	Y5	Z5	X6	Y6	Z6	X7	Y7	Z7	X8	Y8	Z8	X9	Y9	Z9	X10	Y10	Z10	X11	Y11	Z11	X12	Y12	Z12	X13	Y13	Z13	X14	Y14	Z14	X15	Y15	Z15	X16	Y16	Z16	X17	Y17	Z17	X18	Y18	Z18	X19	Y19	Z19	X20	Y20	Z20	X21	Y21	Z21	X22	Y22	Z22	X23	Y23	Z23	X24	Y24	Z24	X25	Y25	Z25	X26	Y26	Z26	X27	Y27	Z27	X28	Y28	Z28	X29	Y29	Z29	X30	Y30	Z30	X31	Y31	Z31	X32	Y32	Z32	X33	Y33	Z33	X34	Y34	Z34	X35	Y35	Z35	X36	Y36	Z36	X37	Y37	Z37	X38	Y38	Z38	X39	Y39	Z39	X40	Y40	Z40	X41	Y41	Z41	X42	Y42	Z42	X43	Y43	Z43	X44	Y44	Z44	X45	Y45	Z45	X46	Y46	Z46	X47	Y47	Z47	X48	Y48	Z48	X49	Y49	Z49	X50	Y50	Z50	X51	Y51	Z51	X52	Y52	Z52	X53	Y53	Z53	X54	Y54	Z54	X55	Y55	Z55	X56	Y56	Z56	X57	Y57	Z57	X58	Y58	Z58	X59	Y59	Z59	

377	3.76	585.6719970703125	974.8015747070312	-338.71435546875	456.9990539550781	976.878662109375	-330.0592041015625	527.1921997070312	1026.435913085938	-333.66064453125	508.546630859375	1218.444580078125	-548.6069946289062	520.7889404296875	1146.233520507812	-312.1702270507812	505.2870178222656	1396.0517578125	-341.6496276855469	507.7070007324219	1342.834228515625	-501.2778625488281	573.2312622070312	1255.105224609375	-302.6249389648438	403.5728759765625	1357.871215820312	-330.4999084472656	345.1687316894531	1377.188232421875	-414.15380859375	278.7159729003906	1255.36279296875	-405.4469299316406	263.8709411621094	1056.049926757812	-456.5736389160156	317.6405334472656	1031.5576171875	-394.1139831542969	319.2007446289062	841.6690063476562	-599.1473999023438	261.4503173828125	820.7486572265625	-565.8385009765625	257.2629699707031	956.2696533203125	-493.3054809570312	269.4694519042969	752.6658325195312	-579.5545043945312	304.2132568359375	768.9144897460938	-630.0938110351562	668.4222412109375	1383.53955078125	-404.9549865722656	731.4816284179688	1317.275634765625	-397.0602111816406	761.6246948242188	1047.94580078125	-409.4493713378906	675.9263305664062	1041.949829101562	-370.1579284667969	713.4904174804688	818.1751098632812	-516.1614379882812	781.061767578125	806.345703125	-482.3465270996094	770.064453125	981.539794921875	-434.7413635253906	725.3881225585938	642.6304931640625	-515.134033203125	726.51123046875	713.6080932617188	-536.493408203125	779.4719848632812	722.2073974609375	-492.4492797851562	588.7111206054688	1602.344970703125	-381.221435546875	456.76025390625	1623.21142578125	-541.251708984375	558.4821166992188	1624.019409179688	-539.7195434570312	446.259033203125	1595.090087890625	-356.9102783203125	691.480712890625	923.3070068359375	-417.5594482421875	638.7721557617188	945.7274169921875	-527.237060546875	398.1473083496094	945.25537109375	-533.9116821289062	338.4972839355469	462.4430541992188	-437.1748962402344	333.6636047363281	602.7077026367188	-444.0941772460938	334.0631713867188	44.00439453125	-374.6283264160156	322.0664367675781	249.4579162597656	-404.3033447265625	397.4024963378906	39.17512130737305	-578.9776611328125	436.6209106445312	27.65490913391113	-508.2261657714844	322.9571533203125	38.94081878662109	-500.6457824707031	400.8183288574219	39.25980758666992	-338.4818725585938	653.72119140625	455.2246704101562	-429.2575073242188	681.4837646484375	712.128662109375	-472.0733947753906	620.2774047851562	41.11281585693359	-372.8638000488281	641.3311157226562	338.8219299316406	-431.6408081054688	549.5562744140625	41.32785415649414	-561.5365600585938	513.4669799804688	38.7197151184082	-502.4285888671875	575.6834106445312	45.10637664794922	-320.20166015625	318.40087890625	685.0979614257812	-642.1264038085938	347.2132263183594	919.6654052734375	-409.1795043945312	628.0460205078125	29.10744094848633	-474.7984313964844	nan	nan	nan	nan	nan	nan	nan	nan	nan	nan	nan	nan	nan	nan	nan	nan	nan	nan	
378	3.77	585.2009887695312	974.9404296875	-339.2323913574219	456.562255859375	976.9663696289062	-330.6554870605469	526.7210693359375	1026.4697265625	-334.2477416992188	508.61474609375	1218.38623046875	-549.2122192382812	520.2686157226562	1146.275756835938	-312.6287841796875	504.88671875	1396.01513671875	-342.30712890625	507.660400390625	1342.787231445312	-501.9198608398438	572.6517333984375	1255.132934570312	-303.1407470703125	403.0308837890625	1357.922973632812	-331.4787902832031	344.9288940429688	1377.17919921875	-415.3484802246094	278.4489440917969	1255.290893554688	-406.9110717773438	264.0556335449219	1055.90966796875	-457.9798583984375	317.5746154785156	1031.511840820312	-394.985107421875	321.499267578125	841.9717407226562	-600.2532958984375	263.5494384765625	820.7144165039062	-567.5848388671875	258.1685180664062	956.04736328125	-494.7474975585938	271.9712524414062	752.7289428710938	-581.5606689453125	307.0846862792969	769.392333984375	-631.707275390625	668.153076171875	1383.4873046875	-405.1490173339844	731.26708984375	1317.314453125	-397.1153564453125	761.8994140625	1048.048706054688	-409.8504028320312	676.3530883789062	1041.751342773438	-370.3898620605469	713.74267578125	818.5316162109375	-516.9844970703125	781.5279541015625	806.688720703125	-483.5504760742188	770.434814453125	981.6693115234375	-435.3135070800781	726.2330932617188	643.1264038085938	-517.5771484375	727.2174682617188	714.4347534179688	-538.337158203125	780.2216186523438	722.7394409179688	-494.3611450195312	588.4378662109375	1602.453857421875	-381.8343811035156	456.5384216308594	1623.130859375	-541.9368286132812	558.287109375	1624.014404296875	-540.3868408203125	446.0091857910156	1595.137084960938	-357.625244140625	691.1124877929688	923.3926391601562	-418.3313293457031	638.396484375	945.6963500976562	-527.6956787109375	397.7860717773438	945.2188110351562	-534.514892578125	338.5314636230469	462.4807434082031	-437.430419921875	333.683349609375	602.6492309570312	-444.606689453125	334.12255859375	44.01188659667969	-374.6170043945312	322.1088562011719	249.4219665527344	-404.3521423339844	397.4186706542969	39.17973709106445	-578.9664306640625	436.622802734375	27.61850357055664	-508.2041015625	322.9812316894531	38.9701042175293	-500.6328735351562	400.8463745117188	39.23942184448242	-338.4593200683594	653.1948852539062	455.1310729980469	-429.3983459472656	680.9132080078125	712.00341796875	-472.5554504394531	620.2376098632812	41.13234329223633	-372.8632202148438	641.0762939453125	338.8436279296875	-431.7471923828125	549.5418090820312	41.32409286499023	-561.5328369140625	513.4503173828125	38.70599365234375	-502.4241027832031	575.6436157226562	45.15586853027344	-320.2073059082031	321.6648864746094	685.665771484375	-644.0410766601562	346.8117370605469	919.7166137695312	-409.7862548828125	628.019775390625	29.12485504150391	-474.7941284179688	nan	nan	nan	nan	nan	nan	nan	nan	nan	nan	nan	nan	nan	nan	nan	nan	nan	nan	
379	3.78	584.7625732421875	975.070068359375	-339.7020568847656	456.1302490234375	976.9928588867188	-331.2199401855469	526.2597045898438	1026.513305664062	-334.8091735839844	508.6314697265625	1218.3447265625	-549.7801513671875	519.7223510742188	1146.332885742188	-313.1028137207031	504.5126342773438	1395.999267578125	-342.9365234375	507.6001586914062	1342.7587890625	-502.5357360839844	572.1254272460938	1255.133666992188	-303.6342163085938	402.4841613769531	1358.009521484375	-332.4090270996094	344.7064208984375	1377.226318359375	-416.5026550292969	278.1869201660156	1255.290283203125	-408.3507995605469	264.2407531738281	1055.83935546875	-459.3691711425781	317.5913696289062	1031.57421875	-395.802001953125	323.834716796875	842.1837158203125	-601.1157836914062	265.6670532226562	820.6629028320312	-569.0953979492188	259.1726989746094	955.89306640625	-496.0787048339844	274.4766235351562	752.7408447265625	-583.202880859375	309.9888305664062	769.7125244140625	-632.9567260742188	667.8758544921875	1383.435913085938	-405.3334045410156	731.0503540039062	1317.371704101562	-397.1644287109375	762.1255493164062	1048.142211914062	-410.2116394042969	676.7553100585938	1041.586059570312	-370.7297973632812	714.0856323242188	818.976318359375	-518.002685546875	781.944580078125	807.0238037109375	-484.7427062988281	770.7692260742188	981.7985229492188	-435.841064453125	726.997802734375	643.8082275390625	-520.2483520507812	727.9451293945312	715.3814697265625	-540.3749389648438	780.82373046875	723.2481689453125	-496.2620239257812	588.1528930664062	1602.539428710938	-382.3835144042969	456.3332824707031	1623.068115234375	-542.5753173828125	558.0911254882812	1624.0234375	-540.9913940429688	445.76904296875	1595.170166015625	-358.299560546875	690.7872924804688	923.5033569335938	-419.0849304199219	638.0065307617188	945.6651611328125	-528.152099609375	397.4191284179688	945.2029418945312	-535.088623046875	338.4904479980469	462.50732421875	-437.7349243164062	333.6617431640625	602.605712890625	-445.1049499511719	334.1730041503906	44.01848983764648	-374.6083374023438	322.1330261230469	249.3770599365234	-404.4287109375	397.4298095703125	39.18339920043945	-578.9597778320312	436.6255187988281	27.59340476989746	-508.1897277832031	323.0018615722656	38.99343490600586	-500.6224365234375	400.8723754882812	39.22814178466797	-338.4461364746094	652.6660766601562	455.0188598632812	-429.5496215820312	680.33984375	711.8595581054688	-473.0479736328125	620.20556640625	41.15290069580078	-372.8648681640625	640.8465576171875	338.8793640136719	-431.873779296875	549.526611328125	41.31919097900391	-561.5285034179688	513.4345703125	38.69469451904297	-502.418701171875	575.610107421875	45.198974609375	-320.2139282226562	324.9726867675781	686.0526733398438	-645.4127197265625	346.4123840332031	919.7539672851562	-410.3518676757812	627.9970092773438	29.14078140258789	-474.7919006347656	nan	nan	nan	nan	nan	nan	nan	nan	nan	nan	nan	nan	nan	nan	nan	nan	nan	nan	
380	3.79	584.352294921875	975.17236328125	-340.1286926269531	455.7104187011719	976.9592895507812	-331.7502136230469	525.8072509765625	1026.56103515625	-335.3377685546875	508.6041564941406	1218.322387695312	-550.3208618164062	519.14208984375	1146.4052734375	-313.6077270507812	504.1651916503906	1396.004028320312	-343.5374755859375	507.5312194824219	1342.750122070312	-503.1288146972656	571.6383056640625	1255.102661132812	-304.1178283691406	401.9439086914062	1358.127563476562	-333.2855529785156	344.4924926757812	1377.317749023438	-417.608642578125	277.9423217773438	1255.344482421875	-409.7463684082031	264.4637451171875	1055.82568359375	-460.7174682617188	317.7060852050781	1031.722778320312	-396.5628356933594	326.1873779296875	842.3073120117188	-601.7528076171875	267.7818603515625	820.5875854492188	-570.3772583007812	260.2720336914062	955.8026733398438	-497.2946472167969	276.9476318359375	752.6928100585938	-584.4888916015625	312.900634765625	769.8622436523438	-633.8495483398438	667.5849609375	1383.3828125	-405.5071105957031	730.8215942382812	1317.439331054688	-397.2116394042969	762.306640625	1048.2275390625	-410.5276794433594	677.1270751953125	1041.459350585938	-371.1806335449219	714.4985961914062	819.4950561523438	-519.2010498046875	782.3063354492188	807.3553466796875	-485.9241027832031	771.05908203125	981.9273681640625	-436.3167419433594	727.6881103515625	644.6710815429688	-523.1033325195312	728.6621704101562	716.3991088867188	-542.554443359375	781.2774047851562	723.7265014648438	-498.1393127441406	587.8622436523438	1602.60693359375	-382.8762817382812	456.148193359375	1623.021118164062	-543.173095703125	557.893310546875	1624.04345703125	-541.5330810546875	445.5370178222656	1595.189697265625	-358.9286193847656	690.5005493164062	923.6075439453125	-419.7861022949219	637.62158203125	945.6422729492188	-528.6090698242188	397.0547180175781	945.207275390625	-535.638671875	338.3656311035156	462.5138244628906	-438.1198425292969	333.5737609863281	602.57470703125	-445.600830078125	334.2124328613281	44.0234375	-374.6025390625	322.1409606933594	249.3214111328125	-404.5531005859375	397.4369506835938	39.18593978881836	-578.957275390625	436.6288452148438	27.57709121704102	-508.1820068359375	323.0188903808594	39.00910949707031	-500.6146240234375	400.8953857421875	39.22531509399414	-338.443359375	652.17578125	454.90771484375	-429.7108154296875	679.8052368164062	711.7169189453125	-473.5504150390625	620.1807861328125	41.16169357299805	-372.8623657226562	640.6532592773438	338.9245300292969	-432.0116882324219	549.5125732421875	41.31418228149414	-561.5215454101562	513.4225463867188	38.68902206420898	-502.4103698730469	575.59228515625	45.23072052001953	-320.2201843261719	328.3027648925781	686.2484741210938	-646.2440795898438	346.0263366699219	919.7716064453125	-410.8814086914062	627.9825439453125	29.15353393554688	-474.7917785644531	nan	nan	nan	nan	nan	nan	nan	nan	nan	nan	nan	nan	nan	nan	nan	nan	nan	nan	
